# xmcd
# 
# Track frame offsets:
#     150
#     12187
#     27437
#     40105
#     52800
#     64862
#     75450
#     86887
#     105000
#     120950
#     132992
#     143462
#     158142
#     169800
#     183050
#     197830
#     214017
#     227200
#     241700
#     254387
# 
# Disc length: 3607
# 
# Revision: 8
# Processed by: cddbd v1.5.2PL0 Copyright (c) Steve Scherf et al.
# Submitted via: fre:ac v1.1beta1pre5
# 
DISCID=f40e1514
DTITLE=Various Artist - The Ultimate Country Collection  CD1
DYEAR=1992
DGENRE=Country
TTITLE0=Charlie Rich - The Most Beautiful Girl
TTITLE1=Don Williams - I Recall A Gypsy Woman
TTITLE2=Patsy Cline - I Fall To Pieces
TTITLE3=Charley Pride - Crystal Chandeliers
TTITLE4=Tammy Wynette - Stand By Your Man
TTITLE5=Leroy van Dyke - Walk On By
TTITLE6=Freddy Fender - Before The Next Teardrop Falls
TTITLE7=Chet Atkins - Poor Boy Blues
TTITLE8=Billie Jo Spears - Blanket On The Ground
TTITLE9=Eddy Arnold - Make The World Go Away
TTITLE10=Jim Reeves - He'll Have To Go
TTITLE11=George Jones - He Stopped Loving Her Today
TTITLE12=Johnny Cash - Ring Of Fire
TTITLE13=Lynn Anderson - Rose Garden
TTITLE14=Rodney Crowell - I Couldn't Leave You If I Tried
TTITLE15=Kenny Rogers - Lucille
TTITLE16=Ronnie Milsap - (I'd Be) A Legend In My Time
TTITLE17=Glen Campbell - Rhinestone Cowboy
TTITLE18=Hank Snow - I'm Movin' On
TTITLE19=Akabama - Feels So Right
EXTD=YEAR: 1992
EXTT0=
EXTT1=
EXTT2=
EXTT3=
EXTT4=
EXTT5=
EXTT6=
EXTT7=
EXTT8=
EXTT9=
EXTT10=
EXTT11=
EXTT12=
EXTT13=
EXTT14=
EXTT15=
EXTT16=
EXTT17=
EXTT18=
EXTT19=
PLAYORDER=
